<?xml version="1.0" standalone="no"?>
<!DOCTYPE svg PUBLIC "-//W3C//DTD SVG 20010904//EN"
 "http://www.w3.org/TR/2001/REC-SVG-20010904/DTD/svg10.dtd">
<svg version="1.0" xmlns="http://www.w3.org/2000/svg"
 width="209.000000pt" height="209.000000pt" viewBox="0 0 209.000000 209.000000"
 preserveAspectRatio="xMidYMid meet">
<metadata>
Created by potrace 1.11, written by Peter Selinger 2001-2013
</metadata>
<g transform="translate(0.000000,209.000000) scale(0.100000,-0.100000)"
fill="#000000" stroke="none">
<path d="M0 1050 l0 -1030 1045 0 1045 0 0 1030 0 1030 -1045 0 -1045 0 0
-1030z m897 798 l152 -61 -15 -36 c-9 -20 -43 -104 -76 -188 l-61 -152 -31 13
c-17 7 -102 41 -188 76 l-157 64 13 30 c7 17 41 102 76 188 l64 157 35 -15
c20 -9 104 -43 188 -76z m590 -242 c3 -3 -82 -223 -131 -338 l-16 -37 -182 75
c-100 41 -184 76 -185 78 -3 3 132 349 143 368 3 5 360 -135 371 -146z m-840
-175 c82 -33 165 -66 185 -75 l37 -16 -75 -182 c-41 -100 -76 -184 -78 -185
-8 -8 -371 145 -369 155 4 18 146 362 149 362 2 0 70 -27 151 -59z m920 -372
c98 -39 181 -73 185 -75 5 -3 -135 -360 -146 -372 -8 -7 -371 146 -369 156 4
19 146 362 149 362 2 0 84 -32 181 -71z m-440 -343 c3 -3 -132 -349 -143 -368
-3 -5 -360 135 -371 146 -3 3 82 223 131 338 l16 37 182 -75 c100 -41 184 -76
185 -78z m295 -116 l157 -64 -13 -30 c-7 -17 -41 -102 -76 -188 l-64 -157 -35
15 c-20 9 -104 43 -188 76 l-152 61 17 41 c9 23 44 107 76 188 l59 147 31 -13
c17 -7 102 -41 188 -76z"/>
</g>
</svg>
