<?xml version="1.0" standalone="no"?>
<!DOCTYPE svg PUBLIC "-//W3C//DTD SVG 20010904//EN"
 "http://www.w3.org/TR/2001/REC-SVG-20010904/DTD/svg10.dtd">
<svg version="1.0" xmlns="http://www.w3.org/2000/svg"
 width="1122.000000pt" height="1122.000000pt" viewBox="0 0 1122.000000 1122.000000"
 preserveAspectRatio="xMidYMid meet">
<metadata>
Created by potrace 1.11, written by Peter Selinger 2001-2013
</metadata>
<g transform="translate(0.000000,1122.000000) scale(0.100000,-0.100000)"
fill="#000000" stroke="none">
<path d="M0 5610 l0 -4900 5610 0 5610 0 0 4900 0 4900 -5610 0 -5610 0 0
-4900z m7223 2046 c235 -153 427 -280 427 -282 0 -12 -864 -1334 -872 -1334
-8 0 -1312 842 -1331 860 -5 4 173 286 394 626 221 340 417 642 436 671 l33
52 243 -158 c133 -86 434 -282 670 -435z m-2898 -408 c366 -237 665 -435 665
-440 0 -8 -842 -1312 -860 -1331 -9 -10 -1343 855 -1341 869 2 12 861 1334
867 1334 2 0 304 -194 669 -432z m3221 -2091 c366 -238 666 -437 665 -443 -2
-12 -861 -1334 -867 -1334 -12 0 -1334 864 -1334 872 0 9 860 1338 866 1338 2
0 303 -195 670 -433z m-2658 -563 c361 -234 661 -430 665 -434 7 -6 -851
-1340 -864 -1344 -6 -1 -1339 864 -1339 870 0 12 864 1334 872 1334 5 0 305
-192 666 -426z"/>
</g>
</svg>
